<svg width="48" height="48" viewBox="0 0 48 48" fill="none" xmlns="http://www.w3.org/2000/svg">
<rect width="48" height="48" rx="24" fill="#FFF3F4"/>
<circle cx="24" cy="24" r="16" fill="#FFE3E4"/>
<path fill-rule="evenodd" clip-rule="evenodd" d="M20.5343 18.16L21.0724 16.547C21.1813 16.2203 21.4873 16 21.8319 16H26.1554C26.5 16 26.8059 16.2203 26.9149 16.547L27.453 18.16H31.1994C31.6415 18.16 32 18.5182 32 18.96C32 19.4018 31.6415 19.76 31.1994 19.76H30.5132L29.9256 29.7409C29.8509 31.0095 28.7996 32 27.5278 32H20.4595C19.1877 32 18.1364 31.0095 18.0617 29.7409L17.4741 19.76H16.8006C16.3585 19.76 16 19.4018 16 18.96C16 18.5182 16.3585 18.16 16.8006 18.16H20.5343ZM22.2222 18.16H25.7651L25.5783 17.6H22.409L22.2222 18.16ZM28.9091 19.76H19.0782L19.6602 29.647C19.6851 30.0698 20.0355 30.4 20.4595 30.4H27.5278C27.9517 30.4 28.3022 30.0698 28.3271 29.647L28.9091 19.76ZM25.3563 21.7901C25.3839 21.3491 25.764 21.014 26.2053 21.0416C26.6466 21.0691 26.982 21.4489 26.9544 21.8899L26.5942 27.6499C26.5666 28.0909 26.1865 28.426 25.7451 28.3984C25.3038 28.3709 24.9684 27.9911 24.996 27.5501L25.3563 21.7901ZM22.9913 27.5501C23.0189 27.9911 22.6835 28.3709 22.2421 28.3984C21.8008 28.426 21.4207 28.0909 21.3931 27.6499L21.0328 21.8899C21.0052 21.4489 21.3407 21.0691 21.782 21.0416C22.2233 21.014 22.6034 21.3491 22.631 21.7901L22.9913 27.5501Z" fill="#F04349"/>
</svg>
