<svg width="32" height="32" viewBox="0 0 32 32" fill="none" xmlns="http://www.w3.org/2000/svg">
<path d="M22 8.29988H19.0539C18.6887 7.89097 18.2412 7.5638 17.7408 7.3398C17.2404 7.11579 16.6983 7 16.15 7C15.6017 7 15.0596 7.11579 14.5592 7.3398C14.0588 7.5638 13.6113 7.89097 13.2461 8.29988H10.3C9.95522 8.29988 9.62456 8.43685 9.38076 8.68064C9.13696 8.92444 9 9.2551 9 9.59988V23.2499C9 23.5947 9.13696 23.9253 9.38076 24.1691C9.62456 24.4129 9.95522 24.5499 10.3 24.5499H22C22.3448 24.5499 22.6754 24.4129 22.9192 24.1691C23.163 23.9253 23.3 23.5947 23.3 23.2499V9.59988C23.3 9.2551 23.163 8.92444 22.9192 8.68064C22.6754 8.43685 22.3448 8.29988 22 8.29988ZM16.15 8.29988C16.8396 8.29988 17.5009 8.57381 17.9885 9.0614C18.4761 9.549 18.75 10.2103 18.75 10.8999H13.55C13.55 10.2103 13.8239 9.549 14.3115 9.0614C14.7991 8.57381 15.4604 8.29988 16.15 8.29988ZM18.75 18.6999H13.55C13.3776 18.6999 13.2123 18.6314 13.0904 18.5095C12.9685 18.3876 12.9 18.2223 12.9 18.0499C12.9 17.8775 12.9685 17.7122 13.0904 17.5903C13.2123 17.4684 13.3776 17.3999 13.55 17.3999H18.75C18.9224 17.3999 19.0877 17.4684 19.2096 17.5903C19.3315 17.7122 19.4 17.8775 19.4 18.0499C19.4 18.2223 19.3315 18.3876 19.2096 18.5095C19.0877 18.6314 18.9224 18.6999 18.75 18.6999ZM18.75 16.0999H13.55C13.3776 16.0999 13.2123 16.0314 13.0904 15.9095C12.9685 15.7876 12.9 15.6223 12.9 15.4499C12.9 15.2775 12.9685 15.1122 13.0904 14.9903C13.2123 14.8684 13.3776 14.7999 13.55 14.7999H18.75C18.9224 14.7999 19.0877 14.8684 19.2096 14.9903C19.3315 15.1122 19.4 15.2775 19.4 15.4499C19.4 15.6223 19.3315 15.7876 19.2096 15.9095C19.0877 16.0314 18.9224 16.0999 18.75 16.0999Z" fill="currentColor"/>
</svg>