<svg width="24" height="24" viewBox="0 0 24 24" fill="none" xmlns="http://www.w3.org/2000/svg">
<path d="M12.5546 8.46357L7.97631 13.0419C7.64707 13.3822 7.47088 13.8446 7.48578 14.3292C7.50069 14.8139 7.70548 15.282 8.05597 15.6325C8.40645 15.983 8.87454 16.1877 9.3592 16.2026C9.84386 16.2176 10.3062 16.0414 10.6466 15.7121L16.6519 9.71549C16.9416 9.43297 17.1698 9.09313 17.323 8.71565C17.4763 8.33817 17.5516 7.93056 17.5447 7.51646C17.5377 7.10236 17.4486 6.69 17.2825 6.30328C17.1164 5.91656 16.8767 5.56319 16.5771 5.26363C16.2776 4.96408 15.9242 4.72431 15.5375 4.55822C15.1507 4.39213 14.7384 4.30303 14.3243 4.29607C13.9102 4.28912 13.5026 4.36446 13.1251 4.51771C12.7476 4.67097 12.4078 4.89911 12.1253 5.18889L6.08388 11.2303C5.67492 11.627 5.35272 12.1048 5.136 12.6358C4.91928 13.1668 4.81236 13.7405 4.82147 14.3235C4.83058 14.9065 4.95552 15.4872 5.18905 16.0318C5.42257 16.5763 5.76001 17.074 6.18175 17.4957C6.60349 17.9174 7.10111 18.2549 7.64568 18.4884C8.19026 18.7219 8.77092 18.8469 9.35391 18.856C9.9369 18.8651 10.5106 18.7582 11.0416 18.5414C11.5726 18.3247 12.0504 18.0025 12.4472 17.5936L18.0926 11.9481" stroke="currentColor" stroke-width="1.25" stroke-miterlimit="10" stroke-linecap="round"/>
</svg>
