<svg width="27" height="26" viewBox="0 0 27 26" fill="none" xmlns="http://www.w3.org/2000/svg">
<g id="ic:baseline-cake">
<path id="Vector" d="M14.1667 8.45455C14.6489 8.45455 15.1114 8.26299 15.4523 7.92201C15.7933 7.58104 15.9849 7.11858 15.9849 6.63636C15.9849 6.29091 15.894 5.97273 15.7212 5.7L14.1667 3L12.6121 5.7C12.4394 5.97273 12.3485 6.29091 12.3485 6.63636C12.3485 7.63636 13.1667 8.45455 14.1667 8.45455ZM18.3485 17.5364L17.3758 16.5636L16.394 17.5364C15.2121 18.7182 13.1394 18.7273 11.9485 17.5364L10.9758 16.5636L9.98486 17.5364C9.39395 18.1273 8.60304 18.4545 7.76668 18.4545C7.10305 18.4545 6.49395 18.2455 5.98486 17.9V22.0909C5.98486 22.5909 6.39395 23 6.89395 23H21.4394C21.9394 23 22.3485 22.5909 22.3485 22.0909V17.9C21.8394 18.2455 21.2303 18.4545 20.5667 18.4545C19.7303 18.4545 18.9394 18.1273 18.3485 17.5364ZM19.6212 11.1818H15.0758V9.36364H13.2576V11.1818H8.71214C7.20305 11.1818 5.98486 12.4 5.98486 13.9091V15.3091C5.98486 16.2909 6.78486 17.0909 7.76668 17.0909C8.23941 17.0909 8.69395 16.9091 9.02123 16.5727L10.9667 14.6364L12.903 16.5727C13.5758 17.2455 14.7485 17.2455 15.4212 16.5727L17.3667 14.6364L19.303 16.5727C19.6394 16.9091 20.0849 17.0909 20.5576 17.0909C21.5394 17.0909 22.3394 16.2909 22.3394 15.3091V13.9091C22.3485 12.4 21.1303 11.1818 19.6212 11.1818Z" fill="white"/>
</g>
</svg>
