<svg width="24" height="24" viewBox="0 0 24 24" fill="none" xmlns="http://www.w3.org/2000/svg">
<path fill-rule="evenodd" clip-rule="evenodd" d="M10.5858 12L6.29289 16.2929C5.90237 16.6834 5.90237 17.3166 6.29289 17.7071C6.68342 18.0976 7.31658 18.0976 7.70711 17.7071L12.7071 12.7071C13.0976 12.3166 13.0976 11.6834 12.7071 11.2929L7.70711 6.29289C7.31658 5.90237 6.68342 5.90237 6.29289 6.29289C5.90237 6.68342 5.90237 7.31658 6.29289 7.70711L10.5858 12Z" fill="currentColor"/>
<path fill-rule="evenodd" clip-rule="evenodd" d="M15.5858 12L11.2929 16.2929C10.9024 16.6834 10.9024 17.3166 11.2929 17.7071C11.6834 18.0976 12.3166 18.0976 12.7071 17.7071L17.7071 12.7071C18.0976 12.3166 18.0976 11.6834 17.7071 11.2929L12.7071 6.29289C12.3166 5.90237 11.6834 5.90237 11.2929 6.29289C10.9024 6.68342 10.9024 7.31658 11.2929 7.70711L15.5858 12Z" fill="currentColor"/>
</svg>
