<svg width="32" height="32" viewBox="0 0 32 32" fill="none" xmlns="http://www.w3.org/2000/svg">
<path d="M10.6667 9C9.95942 9 9.28115 9.295 8.78105 9.8201C8.28095 10.3452 8 11.0574 8 11.8V12.0814L16 16.6048L24 12.0828V11.8C24 11.0574 23.719 10.3452 23.219 9.8201C22.7189 9.295 22.0406 9 21.3333 9H10.6667ZM24 13.6718L16.316 18.016C16.2189 18.0709 16.1103 18.0996 16 18.0996C15.8897 18.0996 15.7811 18.0709 15.684 18.016L8 13.6718V20.2C8 20.9426 8.28095 21.6548 8.78105 22.1799C9.28115 22.705 9.95942 23 10.6667 23H21.3333C22.0406 23 22.7189 22.705 23.219 22.1799C23.719 21.6548 24 20.9426 24 20.2V13.6718Z" fill="white"/>
</svg>
